<?xml version="1.0" encoding="iso-8859-1"?>
<!-- Uploaded to: SVG Repo, www.svgrepo.com, Generator: SVG Repo Mixer Tools -->
<svg height="800px" width="800px" version="1.1" id="Layer_1" xmlns="http://www.w3.org/2000/svg" xmlns:xlink="http://www.w3.org/1999/xlink" 
	 viewBox="0 0 512.001 512.001" xml:space="preserve">
<path style="fill:#95DEED;" d="M485.659,147.518c0-22.659-18.369-41.027-41.027-41.027H67.369
	c-22.659,0-41.027,18.369-41.027,41.027v199.949H485.66V147.518H485.659z"/>
<path style="fill:#E6E6E6;" d="M10.199,347.467v14.132c0,24.252,19.66,43.911,43.911,43.911h403.779
	c24.252,0,43.911-19.66,43.911-43.911v-14.132H10.199z"/>
<g>
	<path style="fill:#4C1D1D;" d="M501.801,337.269h-5.943V147.518c0-28.246-22.98-51.227-51.227-51.227H67.369
		c-28.246,0-51.227,22.98-51.227,51.227v189.751h-5.943C4.567,337.269,0,341.836,0,347.468v14.131
		c0,29.837,24.274,54.111,54.111,54.111H457.89c29.837,0,54.111-24.274,54.111-54.111v-14.131
		C512,341.835,507.433,337.269,501.801,337.269z M36.541,147.518c0-16.998,13.83-30.828,30.828-30.828h377.263
		c16.998,0,30.828,13.83,30.828,30.828v189.751H36.541V147.518z M491.602,357.667v3.932c0,18.589-15.123,33.712-33.712,33.712
		H54.111c-18.589,0-33.712-15.123-33.712-33.712v-3.932H491.602z"/>
	<path style="fill:#4C1D1D;" d="M283.636,362.335h-55.271c-5.632,0-10.199,4.567-10.199,10.199c0,5.632,4.567,10.199,10.199,10.199
		h55.271c5.632,0,10.199-4.567,10.199-10.199C293.835,366.903,289.268,362.335,283.636,362.335z"/>
	<path style="fill:#4C1D1D;" d="M128.688,290.268l-2.829,2.829c-3.983,3.983-3.983,10.441,0,14.425
		c1.992,1.991,4.602,2.987,7.212,2.987c2.61,0,5.22-0.996,7.212-2.987l2.829-2.829c3.983-3.983,3.983-10.441,0-14.425
		C139.128,286.285,132.672,286.285,128.688,290.268z"/>
	<path style="fill:#4C1D1D;" d="M367.698,145.064H316.24c-5.632,0-10.199,4.567-10.199,10.199s4.567,10.199,10.199,10.199h27.797
		l-66.191,66.191l-38.059-38.059c-3.984-3.982-10.44-3.982-14.425,0l-74.038,74.038c-3.983,3.983-3.983,10.441,0,14.425
		c1.992,1.991,4.602,2.987,7.212,2.987c2.61,0,5.22-0.996,7.212-2.987l66.826-66.826l38.059,38.059
		c1.913,1.912,4.507,2.987,7.212,2.987s5.298-1.075,7.212-2.987l72.44-72.441v25.873c0,5.632,4.567,10.199,10.199,10.199
		c5.632,0,10.199-4.567,10.199-10.199v-51.459C377.897,149.631,373.33,145.064,367.698,145.064z"/>
</g>
</svg>