<svg width="57" height="50" viewBox="0 0 57 50" fill="none" xmlns="http://www.w3.org/2000/svg">
<g clip-path="url(#clip0_1_16)">
<path d="M55.7918 0H13.2387C12.7165 0 12.2931 0.373124 12.2931 0.833332V13.3333H14.1843V1.66666H54.8462V47.4999C54.8553 47.9381 54.4716 48.3052 53.9753 48.3332C53.8939 48.3332 53.8126 48.3274 53.7313 48.3257C53.5639 48.3216 53.3965 48.3182 53.232 48.3032C53.2178 48.3032 53.2046 48.3032 53.1904 48.2982C50.102 48.0007 47.6624 45.8529 47.3219 43.1316C47.3219 43.1199 47.3171 43.1074 47.3152 43.0957C47.2923 42.8977 47.281 42.6989 47.2812 42.4999V40.8333C47.2812 40.373 46.8578 39.9999 46.3356 39.9999H14.1843V24.9999H12.2931V39.9999H4.7281C4.20587 39.9999 3.78247 40.373 3.78247 40.8333V42.4999C3.78767 46.6401 7.59499 49.9953 12.2931 49.9999H53.9951C55.5296 49.9645 56.7493 48.8526 56.7374 47.4999V0.833332C56.7374 0.373124 56.314 0 55.7918 0ZM12.2931 48.3332C8.63908 48.3296 5.67786 45.72 5.67372 42.4999V41.6666H45.3899V42.4999C45.3912 42.7747 45.4092 43.0493 45.4438 43.3224C45.4524 43.3949 45.4684 43.4649 45.4798 43.5366C45.511 43.7382 45.5488 43.9391 45.5989 44.1366C45.6159 44.2057 45.6377 44.2741 45.6576 44.3432C45.7152 44.5441 45.7805 44.7416 45.8561 44.9366C45.8779 44.9924 45.9006 45.0474 45.9242 45.1032C46.0103 45.3099 46.1077 45.5116 46.2145 45.7107C46.2372 45.7516 46.258 45.7941 46.2807 45.8316C46.3993 46.0427 46.5294 46.2479 46.6713 46.4474C46.6902 46.4741 46.7072 46.5016 46.7261 46.5307C46.8802 46.7436 47.0467 46.9494 47.2245 47.1474L47.2547 47.1832C47.4611 47.4117 47.6821 47.6295 47.9167 47.8357C48.1203 48.0135 48.3314 48.1802 48.5502 48.3357L12.2931 48.3332Z" fill="white"/>
<path d="M31.2056 23.3335C31.4564 23.3335 31.6969 23.2455 31.8742 23.0893L35.6567 19.756C36.0258 19.4306 36.0258 18.9031 35.6567 18.5776L31.8742 15.2443C31.6969 15.0881 31.4564 15.0002 31.2056 15.0002H4.72812C2.1169 15.0002 0 16.8657 0 19.1668C0 21.4679 2.1169 23.3335 4.72812 23.3335H31.2056ZM30.9616 16.7968L33.651 19.1668L30.9616 21.5368L30.2893 19.1668L30.9616 16.7968ZM7.565 16.6668H29.0496L28.5768 18.3335H9.45624V20.0001H28.5768L29.0496 21.6668H7.565V16.6668ZM1.89125 19.1668C1.89125 17.7861 3.16134 16.6668 4.72812 16.6668H5.67375V21.6668H4.72812C3.16134 21.6668 1.89125 20.5475 1.89125 19.1668Z" fill="white"/>
<path d="M21.7494 35.8331H50.1181C50.6403 35.8331 51.0637 35.46 51.0637 34.9998V9.99984C51.0636 9.53963 50.6402 9.16661 50.1179 9.16672C49.8672 9.16672 49.6269 9.25453 49.4496 9.41068L21.0808 34.4106C20.7116 34.7361 20.7117 35.2637 21.0811 35.5891C21.2584 35.7453 21.4987 35.8331 21.7494 35.8331ZM49.1725 12.0115V14.1665H47.2812V15.8332H49.1725V17.4998H47.2812V19.1665H49.1725V20.8331H47.2812V22.4998H49.1725V24.1665H47.2812V25.8331H49.1725V27.4998H47.2812V29.1665H49.1725V30.8331H47.2812V32.4998H49.1725V34.1664H47.2812V32.4998H45.39V34.1664H43.4988V32.4998H41.6075V34.1664H39.7163V32.4998H37.825V34.1664H35.9338V32.4998H34.0425V34.1664H32.1513V32.4998H30.26V34.1664H28.3688V32.4998H26.4775V34.1664H24.0321L49.1725 12.0115Z" fill="white"/>
<path d="M35.4467 30.8335H44.4444C44.9666 30.8335 45.39 30.4604 45.39 30.0002V22.0711C45.3899 21.6109 44.9665 21.2378 44.4441 21.2379C44.1934 21.2379 43.9531 21.3258 43.7758 21.4819L34.7782 29.411C34.4089 29.7366 34.409 30.2642 34.7784 30.5896C34.9557 30.7457 35.196 30.8335 35.4467 30.8335ZM43.4987 24.0836V29.1669H37.7304L43.4987 24.0836Z" fill="white"/>
<path d="M43.4987 5.00031H24.5862V6.66697H43.4987V5.00031Z" fill="white"/>
<path d="M46.3356 8.33282H21.7494V9.99949H46.3356V8.33282Z" fill="white"/>
<path d="M21.7494 25.8331H16.0756V27.4998H21.7494V25.8331Z" fill="white"/>
<path d="M19.8581 29.1664H16.0756V30.8331H19.8581V29.1664Z" fill="white"/>
</g>
<defs>
<clipPath id="clip0_1_16">
<rect width="56.7376" height="50" fill="white"/>
</clipPath>
</defs>
</svg>
